<svg width="1215" height="339" viewBox="0 0 1215 339" fill="none" xmlns="http://www.w3.org/2000/svg">
<path d="M434.594 238.503C391.918 238.503 370.303 213.563 370.303 169.778V166.73C370.303 119.343 397.46 97.7283 429.328 97.7283C466.185 97.7283 483.089 120.452 483.089 161.188V169.502H384.99C384.99 208.852 402.171 225.756 436.533 225.756C454.823 225.756 467.848 221.599 478.655 216.057V227.419C470.342 232.407 455.378 238.503 434.594 238.503ZM428.774 109.644C407.436 109.644 387.484 123.223 385.267 157.863H468.124C468.124 125.717 455.378 109.644 428.774 109.644ZM514.49 236.287V37.8712H529.451V236.287H514.49ZM569.686 236.287V37.8712H584.096V236.287H569.686ZM650.606 236.287L587.977 165.622L647.281 100.222H663.351L604.051 164.791L667.232 236.287H650.606ZM724.978 238.503C700.317 238.503 683.134 224.925 683.134 201.37C683.134 177.815 697.266 165.345 723.87 162.297L764.054 157.863V140.127C764.054 117.127 753.52 110.476 729.137 110.476C715.557 110.476 704.471 112.693 694.772 115.464V104.933C706.414 100.222 719.16 97.7283 734.399 97.7283C762.668 97.7283 778.464 109.367 778.464 136.802V236.287H766.27L765.162 224.093H764.327C757.401 231.298 744.934 238.503 724.978 238.503ZM728.581 227.142C743.826 227.142 756.849 221.322 764.054 214.948V168.67L727.751 172.827C707.244 175.044 697.823 183.357 697.823 200.816C697.823 217.72 709.738 227.142 728.581 227.142ZM817.571 236.287V99.9455H831.703V116.018H832.537C840.85 107.15 856.09 98.2828 872.995 98.2828C875.767 98.2828 879.092 98.5596 881.03 99.1141V112.416C877.984 111.862 874.103 111.584 871.887 111.584C856.369 111.584 841.959 118.512 832.259 126.826V236.287H817.571ZM954.815 238.503C926.273 238.503 898.84 221.045 898.84 170.887V167.562C898.84 118.789 924.336 97.7283 959.253 97.7283C977.265 97.7283 989.459 102.717 997.772 108.259V37.8712H1012.18V236.287H999.988L998.602 224.093H997.772C988.346 232.407 974.771 238.503 954.815 238.503ZM958.974 226.588C976.708 226.588 989.181 219.937 997.772 212.732V120.729C990.01 114.632 976.708 110.476 961.469 110.476C932.649 110.476 913.806 125.44 913.806 165.899V170.333C913.806 211.623 932.37 226.588 958.974 226.588ZM1053.03 236.287V100.222H1067.72V236.287H1053.03ZM1052.76 71.1254V54.2209H1068V71.1254H1052.76ZM1140.65 238.503C1115.99 238.503 1098.81 224.925 1098.81 201.37C1098.81 177.815 1112.94 165.345 1139.54 162.297L1179.73 157.863V140.127C1179.73 117.127 1169.19 110.476 1144.81 110.476C1131.23 110.476 1120.15 112.693 1110.45 115.464V104.933C1122.09 100.222 1134.83 97.7283 1150.07 97.7283C1178.34 97.7283 1194.14 109.367 1194.14 136.802V236.287H1181.95L1180.84 224.093H1180C1173.08 231.298 1160.61 238.503 1140.65 238.503ZM1144.26 227.142C1159.5 227.142 1172.52 221.322 1179.73 214.948V168.67L1143.43 172.827C1122.92 175.044 1113.5 183.357 1113.5 200.816C1113.5 217.72 1125.41 227.142 1144.26 227.142Z" fill="#0C71C3"/>
<path d="M373.529 302.422V252.817H378.864V302.422H373.529ZM399.41 303.046C392.69 303.046 388.879 299.651 388.879 293V268.059H394.214V292.238C394.214 296.672 395.808 298.473 400.865 298.473C404.537 298.473 407.585 297.157 410.426 295.771V268.059H415.691V302.422H411.118L410.634 299.305H410.356C407.239 301.453 403.567 303.046 399.41 303.046ZM438.365 303.184C434.346 303.184 428.873 302.491 425.825 301.314V252.817H431.159V270.345H431.506C434.138 268.752 437.395 267.436 442.106 267.436C448.688 267.436 455.477 271.385 455.477 284.271V285.171C455.477 296.672 449.45 303.184 438.365 303.184ZM438.642 298.75C444.808 298.75 449.935 295.841 449.935 286.003V284.617C449.935 275.057 446.609 271.939 439.681 271.939C436.148 271.939 432.961 273.325 431.159 274.156V297.503C432.753 298.196 435.178 298.75 438.642 298.75ZM477.711 303.046C466.903 303.046 461.43 296.464 461.43 285.725V284.756C461.43 272.77 468.496 267.436 476.395 267.436C485.817 267.436 490.251 272.909 490.251 283.578V286.557H466.834C467.111 295.148 471.198 298.473 478.542 298.473C483.115 298.473 486.163 297.365 489.281 295.91V299.859C487.202 301.314 483.253 303.046 477.711 303.046ZM476.256 271.731C471.96 271.731 467.388 274.225 466.834 282.331H484.708C484.708 274.849 481.868 271.731 476.256 271.731ZM498.356 302.422V252.817H503.691V302.422H498.356ZM522.645 302.976C518.142 302.976 514.397 302.145 511.559 300.552V296.326C514.539 297.434 517.034 298.473 521.881 298.473C527.355 298.473 529.572 296.533 529.572 293.416C529.572 290.229 527.978 288.843 523.611 287.596L520.221 286.695C515.232 285.31 511.837 283.024 511.837 277.204C511.837 271.385 515.647 267.436 523.545 267.436C528.114 267.436 531.094 268.475 532.896 269.445V273.74C531.094 272.839 527.634 271.939 523.824 271.939C519.179 271.939 516.892 273.532 516.892 276.719C516.892 279.698 518.349 280.945 522.022 281.984L525.483 282.954C532.066 284.686 534.768 286.903 534.768 292.862C534.768 299.374 530.194 302.976 522.645 302.976ZM542.666 302.422V252.817H547.933V302.422H542.666ZM563.036 302.422L548.49 284.686L562.343 268.128H568.025L554.516 284.271L569.133 302.422H563.036ZM575.959 302.422V268.128H581.226V302.422H575.959ZM575.893 261.2V255.658H581.297V261.2H575.893ZM605.583 303.046C594.776 303.046 589.301 296.464 589.301 285.725V284.756C589.301 272.77 596.37 267.436 604.268 267.436C613.689 267.436 618.121 272.909 618.121 283.578V286.557H594.705C594.983 295.148 599.072 298.473 606.413 298.473C610.987 298.473 614.033 297.365 617.15 295.91V299.859C615.075 301.314 611.124 303.046 605.583 303.046ZM604.126 271.731C599.831 271.731 595.262 274.225 594.705 282.331H612.581C612.581 274.849 609.737 271.731 604.126 271.731ZM658.007 303.046C648.171 303.046 642.14 297.226 642.14 285.933V284.894C642.14 272.701 649.345 267.436 658.214 267.436C662.718 267.436 665.419 268.267 667.706 269.722V274.156C664.655 272.77 662.439 271.939 657.936 271.939C651.703 271.939 647.614 276.165 647.614 284.063V285.725C647.614 294.524 651.288 298.473 658.629 298.473C663.274 298.473 666.32 297.018 668.051 296.048V300.344C665.834 301.66 662.788 303.046 658.007 303.046ZM689.61 303.046C678.802 303.046 673.333 296.464 673.333 285.725V284.756C673.333 272.77 680.396 267.436 688.294 267.436C697.715 267.436 702.153 272.909 702.153 283.578V286.557H678.737C679.01 295.148 683.098 298.473 690.445 298.473C695.014 298.473 698.065 297.365 701.181 295.91V299.859C699.102 301.314 695.155 303.046 689.61 303.046ZM688.158 271.731C683.862 271.731 679.288 274.225 678.737 282.331H696.607C696.607 274.849 693.769 271.731 688.158 271.731ZM710.117 302.422V268.059H715.177V271.038H715.455C718.642 268.96 723.075 267.436 727.3 267.436C734.019 267.436 737.277 270.138 737.277 276.788V302.422H732.01V277.897C732.01 273.74 730.558 272.008 725.083 272.008C721.83 272.008 718.222 273.186 715.384 274.502V302.422H710.117ZM758.138 302.838C752.735 302.838 749.203 300.483 749.203 294.663V272.493H744.285V268.128H749.203V259.953H754.47V268.128H763.269V272.493H754.47V293.832C754.47 297.157 755.578 298.473 759.525 298.473C760.982 298.473 762.576 298.265 763.957 297.849V301.453C762.576 302.076 761.119 302.838 758.138 302.838ZM771.486 302.422V268.059H776.541V271.939H776.89C778.828 269.722 782.567 267.712 786.447 267.712C787.211 267.712 788.183 267.782 788.527 267.851V272.631C787.626 272.493 786.589 272.423 786.033 272.423C782.567 272.423 779.242 273.671 776.819 275.403V302.422H771.486ZM805.755 303.046C799.036 303.046 795.226 299.651 795.226 293V268.059H800.559V292.238C800.559 296.672 802.153 298.473 807.213 298.473C810.886 298.473 813.932 297.157 816.775 295.771V268.059H822.037V302.422H817.463L816.983 299.305H816.704C813.588 301.453 809.914 303.046 805.755 303.046ZM832.172 302.422V268.059H837.232V271.038H837.505C840.693 269.029 844.366 267.436 848.247 267.436C852.128 267.436 854.895 268.682 856.489 271.246H856.767C860.506 268.821 864.524 267.436 868.405 267.436C874.365 267.436 877.826 270.138 877.826 276.788V302.422H872.634V277.897C872.634 273.74 870.97 272.008 866.325 272.008C863.623 272.008 860.714 273.047 857.46 274.502C857.597 275.333 857.668 275.957 857.668 276.788V302.422H852.401V277.897C852.401 273.74 850.741 272.008 846.167 272.008C843.258 272.008 840.207 273.186 837.439 274.502V302.422H832.172ZM905.988 302.422V252.817H911.25V302.422H905.988ZM926.353 302.422L911.807 284.686L925.66 268.128H931.342L917.833 284.271L932.45 302.422H926.353ZM946.774 303.046C940.541 303.046 936.038 299.859 936.038 293.416C936.038 287.389 939.918 284.201 946.501 283.439L955.78 282.331V278.728C955.78 273.393 953.428 272.008 947.26 272.008C943.936 272.008 941.234 272.493 939.089 273.117V269.306C942.064 268.059 945.393 267.436 949.34 267.436C956.894 267.436 961.119 270.553 961.119 277.55V302.422H956.823L956.266 299.443H955.922C954.328 301.383 951.419 303.046 946.774 303.046ZM948.095 298.889C951.277 298.889 954.328 297.849 955.78 296.395V286.28L947.882 287.181C943.657 287.596 941.578 289.328 941.578 293.277C941.578 297.018 944.143 298.889 948.095 298.889ZM971.071 302.422V268.059H976.131V271.939H976.475C978.418 269.722 982.157 267.712 986.038 267.712C986.797 267.712 987.768 267.782 988.117 267.851V272.631C987.216 272.493 986.174 272.423 985.623 272.423C982.157 272.423 978.833 273.671 976.404 275.403V302.422H971.071ZM1007.28 303.046C1000.43 303.046 993.015 298.889 993.015 286.211V285.31C993.015 272.839 999.456 267.436 1008.33 267.436C1012.55 267.436 1015.46 268.614 1017.33 269.722V252.817H1022.66V302.422H1018.23L1017.61 299.582H1017.33C1015.25 301.591 1011.93 303.046 1007.28 303.046ZM1008.88 298.681C1012.89 298.681 1015.6 297.157 1017.33 295.771V274.156C1015.74 272.909 1012.55 271.939 1009.02 271.939C1002.51 271.939 998.555 275.333 998.555 284.617V286.003C998.555 295.633 1002.71 298.681 1008.88 298.681ZM1032.98 302.422V268.128H1038.25V302.422H1032.98ZM1032.92 261.2V255.658H1038.32V261.2H1032.92ZM1061.84 303.046C1052.14 303.046 1046.32 296.811 1046.32 285.864V284.825C1046.32 273.948 1052.63 267.436 1061.91 267.436C1071.61 267.436 1077.5 273.74 1077.5 284.617V285.587C1077.5 296.533 1071.13 303.046 1061.84 303.046ZM1061.98 298.681C1068.22 298.681 1072.1 294.316 1072.1 286.211V284.479C1072.1 274.918 1067.45 271.8 1061.84 271.8C1055.61 271.8 1051.73 276.234 1051.73 284.271V286.003C1051.73 295.564 1056.23 298.681 1061.98 298.681ZM1085.62 302.422V252.817H1090.95V302.422H1085.62ZM1114.55 303.046C1104.85 303.046 1099.03 296.811 1099.03 285.864V284.825C1099.03 273.948 1105.34 267.436 1114.61 267.436C1124.31 267.436 1130.2 273.74 1130.2 284.617V285.587C1130.2 296.533 1123.83 303.046 1114.55 303.046ZM1114.69 298.681C1120.92 298.681 1124.8 294.316 1124.8 286.211V284.479C1124.8 274.918 1120.16 271.8 1114.55 271.8C1108.31 271.8 1104.43 276.234 1104.43 284.271V286.003C1104.43 295.564 1108.94 298.681 1114.69 298.681ZM1150.17 312.607C1139.71 312.607 1134.79 309.558 1134.79 304.57C1134.79 300.898 1137.77 298.75 1141.3 297.573V297.226C1139.36 296.672 1137.84 295.217 1137.84 292.931C1137.84 290.783 1139.08 289.19 1141.72 287.25C1139.08 285.518 1137.42 282.746 1137.42 278.659V278.52C1137.42 271.385 1142.83 267.436 1150.38 267.436C1152.11 267.436 1153.7 267.644 1155.23 267.99H1166.87V272.077H1160.7C1162.29 273.601 1163.19 275.68 1163.19 278.382V278.451C1163.19 285.795 1157.52 289.467 1150.31 289.467C1148.16 289.467 1146.22 289.12 1144.42 288.497C1143.52 289.328 1142.83 290.16 1142.83 291.268C1142.83 293.138 1143.94 293.832 1146.22 293.832H1155.71C1161.95 293.832 1166.59 295.702 1166.59 302.076C1166.59 307.965 1161.88 312.607 1150.17 312.607ZM1150.03 308.45C1158.14 308.45 1161.05 306.371 1161.05 302.769C1161.05 299.582 1159.38 298.543 1154.88 298.543H1144.97C1142.34 299.443 1140.33 300.967 1140.33 303.877C1140.33 306.926 1143.24 308.45 1150.03 308.45ZM1150.31 285.31C1155.09 285.31 1157.86 283.093 1157.86 278.659V278.312C1157.86 273.601 1154.95 271.454 1150.31 271.454C1145.6 271.454 1142.69 273.948 1142.69 278.243V278.59C1142.69 283.093 1145.74 285.31 1150.31 285.31ZM1173.44 302.422V268.128H1178.71V302.422H1173.44ZM1173.37 261.2V255.658H1178.77V261.2H1173.37ZM1189.13 302.422V268.128H1194.4V302.422H1189.13ZM1189.06 261.2V255.658H1194.47V261.2H1189.06Z" fill="#303030"/>
<mask id="mask0_2610_94" style="mask-type:luminance" maskUnits="userSpaceOnUse" x="15" y="15" width="290" height="100">
<path d="M300.573 114.166C303.999 112.651 305.562 108.639 303.904 105.28C291.194 79.5274 271.774 57.6244 247.638 41.9118C221.602 24.9641 191.203 15.95 160.138 15.9669C129.073 15.9838 98.6825 25.031 72.666 42.0071C48.5464 57.7459 29.1504 79.67 16.4688 105.436C14.8146 108.797 16.382 112.808 19.8099 114.318C23.2378 115.829 27.227 114.266 28.8944 110.912C40.5066 87.55 58.1624 67.6689 80.0795 53.3677C103.893 37.829 131.71 29.5478 160.145 29.5323C188.58 29.5168 216.406 37.7676 240.237 53.2807C262.169 67.5581 279.847 87.42 291.484 110.769C293.155 114.122 297.146 115.68 300.573 114.166Z" fill="white"/>
</mask>
<g mask="url(#mask0_2610_94)">
<path d="M300.573 114.166C303.999 112.651 305.562 108.639 303.904 105.28C291.194 79.5275 271.774 57.6245 247.638 41.9119C221.602 24.9642 191.203 15.9502 160.138 15.9671C129.073 15.984 98.6825 25.0311 72.666 42.0072C48.5464 57.746 29.1504 79.6702 16.4688 105.436C14.8146 108.797 16.382 112.808 19.8099 114.319C23.2378 115.829 27.227 114.266 28.8944 110.912C40.5066 87.5502 58.1624 67.6691 80.0795 53.3678C103.893 37.8291 131.71 29.5479 160.145 29.5324C188.58 29.5169 216.406 37.7677 240.237 53.2808C262.169 67.5583 279.847 87.4201 291.484 110.769C293.155 114.122 297.146 115.68 300.573 114.166Z" stroke="#FF2600" stroke-width="27.3695"/>
</g>
<mask id="mask1_2610_94" style="mask-type:luminance" maskUnits="userSpaceOnUse" x="0" y="179" width="321" height="158">
<path d="M6.82415 179.804C3.07922 179.892 0.0998682 183.002 0.34629 186.74C2.93937 226.073 19.9581 263.165 48.2713 290.818C78.2053 320.055 118.389 336.422 160.232 336.42C202.075 336.418 242.258 320.047 272.189 290.808C300.5 263.151 317.515 226.058 320.105 186.725C320.35 182.986 317.371 179.877 313.626 179.789C309.881 179.702 306.79 182.669 306.529 186.406C304.033 222.196 288.486 255.924 262.71 281.104C235.313 307.868 198.532 322.853 160.232 322.854C121.931 322.856 85.1497 307.875 57.7499 281.114C31.971 255.936 16.4213 222.21 13.9211 186.419C13.6601 182.682 10.5691 179.715 6.82415 179.804Z" fill="white"/>
</mask>
<g mask="url(#mask1_2610_94)">
<path d="M6.82415 179.804C3.07922 179.892 0.0998682 183.002 0.34629 186.74C2.93937 226.073 19.9581 263.165 48.2713 290.818C78.2053 320.055 118.389 336.422 160.232 336.42C202.075 336.418 242.258 320.047 272.189 290.808C300.5 263.151 317.515 226.058 320.105 186.725C320.35 182.986 317.371 179.877 313.626 179.789C309.881 179.702 306.79 182.669 306.529 186.406C304.033 222.196 288.486 255.924 262.71 281.104C235.313 307.868 198.532 322.853 160.232 322.854C121.931 322.856 85.1497 307.875 57.7499 281.114C31.971 255.936 16.4213 222.21 13.9211 186.419C13.6601 182.682 10.5691 179.715 6.82415 179.804Z" stroke="#FF2600" stroke-width="27.3695"/>
</g>
<path d="M160.529 112.138C163.366 108.019 170.84 102.773 175.287 100.254C175.911 99.901 177.044 99.4765 177.74 99.1648C178.688 98.7398 179.724 98.1964 180.666 97.8276C184.414 96.3628 188.03 95.1975 192.057 94.7356C192.435 94.6921 193.309 94.2529 193.684 94.2099C194.39 94.1294 195.147 94.1431 195.866 94.0768C202.012 93.4995 208.197 93.4459 214.352 93.9159C216.129 94.0672 217.219 93.9099 218.778 94.8287C219.011 94.9663 220.547 95.0665 221.03 95.2223C222.604 95.7313 224.037 96.4736 225.563 97.098C225.904 97.3155 227.738 97.6237 227.925 97.7846C229.68 99.2898 231.889 99.7133 233.838 100.803C234.923 101.41 235.746 102.512 236.833 103.007C238.214 103.635 239.182 104.701 240.426 105.551C241.646 106.521 243.455 107.904 244.555 108.955C245.683 110.13 246.879 111.406 248.013 112.558C250.092 114.672 251.967 116.808 253.401 119.419C253.704 119.972 254.57 120.707 254.944 121.316C259.344 128.491 262.358 136.633 263.234 145.038C263.311 145.783 263.194 146.653 263.227 147.413C263.32 149.512 263.402 151.584 263.249 153.684C263.116 155.414 263.553 157.179 262.942 158.795C262.555 159.82 262.544 161.585 262.294 162.826C261.928 165.063 261.189 167.184 260.635 169.366C259.485 173.892 257.596 178.298 255.896 182.645C255.513 183.625 254.776 184.808 254.295 185.794C249.107 196.317 242.813 206.251 235.522 215.426C233.786 217.654 231.981 220.084 230.095 222.203C227.885 224.654 225.524 227.01 223.272 229.412C219.544 233.58 215.651 237.468 211.498 241.206C209.255 243.225 206.989 245.735 204.6 247.683C204.24 247.976 202.687 249.203 202.518 249.434C201.226 251.213 198.756 252.46 197.492 254.009L197.394 254.13C197.246 254.304 197.091 254.473 196.932 254.639C196.427 255.163 195.748 255.453 195.171 255.968C187.175 263.155 179.03 270.171 170.737 277.01C170.032 277.583 168.666 279.153 167.992 279.452C165.06 280.846 162.455 280.705 159.354 280.797C154.117 280.952 150.924 277.108 147.316 273.868L138.949 266.408C129.085 257.506 119.371 248.44 109.81 239.21C109.084 238.506 108.422 237.738 107.716 237.053C106.491 235.864 105.171 234.664 104 233.42C103.311 232.688 102.713 231.891 101.979 231.117C101.032 230.116 99.9268 229.237 99.011 228.294C97.822 227.058 96.7058 225.585 95.493 224.383C92.8321 221.748 90.5375 218.941 88.1822 216.048C85.8224 213.15 83.4803 210.266 81.2626 207.247C80.0589 205.608 78.7343 204.038 77.5801 202.358C77.0635 201.625 76.5454 200.438 76.0157 199.612C75.4227 198.588 74.5772 197.619 73.9913 196.604C72.6267 194.24 71.2459 191.919 69.7624 189.627C69.4446 189.137 69.2008 188.052 68.8496 187.439C68.1903 186.29 67.5068 185.145 66.8768 183.982C66.5728 183.41 66.3704 182.168 66.0678 181.675C64.7831 179.582 63.9518 178.186 63.5562 175.713C63.456 175.087 62.2341 173.449 61.9882 172.544C61.5976 171.501 61.4822 170.349 61.2687 169.262C60.875 167.263 60.365 165.529 59.6081 163.662C59.265 162.815 59.2539 160.84 59.0859 159.887C58.8734 158.684 58.6584 157.389 58.6837 156.166C58.713 153.888 58.7419 151.614 58.7515 149.334C58.8663 147.696 58.586 145.732 58.7965 144.14C59.0611 142.136 59.3844 139.927 59.8034 137.958C60.025 136.916 60.3716 135.886 60.6484 134.87C61.1133 133.159 61.4549 131.465 61.9042 129.758C62.225 128.604 63.1079 127.174 63.6164 126.026C65.4343 121.921 67.6596 118.165 70.408 114.622C71.1068 113.727 72.0216 112.987 72.7694 112.145C74.5469 110.305 76.3466 107.979 78.3386 106.378C81.126 104.137 84.3288 102.003 87.4294 100.217C88.2566 99.7401 89.35 99.5084 90.1373 99.0632C92.3256 97.825 94.6622 97.1526 96.9942 96.2611C98.7767 95.6473 101.947 95.1394 103.873 94.7973C104.574 94.6734 105.249 94.1957 105.743 94.1522C106.482 94.0626 107.308 94.1315 108.039 94.0389C110.924 93.6731 113.764 93.7464 116.672 93.7348C119.459 93.7474 122.291 93.6786 125.057 93.9124C125.638 94.0201 126.882 93.8886 127.378 94.0495C128.395 94.3799 129.037 94.6769 130.142 94.852C132.02 95.2648 134.278 95.5603 136.072 96.2596C137.669 96.8819 139.317 97.6267 140.981 98.157C141.93 98.459 143.1 99.3834 144.087 99.5929C145.593 99.9122 146.501 100.858 147.758 101.652C150.929 103.635 153.87 105.81 156.672 108.292C158.244 109.684 159.276 110.285 160.529 112.138ZM160.783 266.891C161.853 266.069 162.777 265.001 163.865 264.18C165.852 262.681 167.645 261.061 169.519 259.436L176.946 253.072C182.179 248.686 187.326 244.196 192.382 239.605C193.233 238.839 194.069 237.918 194.917 237.176C197.064 235.298 199.089 233.357 201.28 231.521C202.005 230.914 202.852 229.819 203.589 229.169C204.576 228.297 205.566 227.511 206.513 226.589C211.582 221.637 216.385 216.418 220.904 210.954C221.501 210.236 222.222 209.539 222.805 208.814C223.723 207.673 224.746 206.408 225.581 205.179C226.279 204.153 227.909 202.601 228.256 201.543C228.431 200.715 229.468 200.151 229.887 199.472C231.5 196.855 233.509 194.562 234.92 191.816C235.262 191.148 235.884 190.491 236.253 189.807C236.712 189.037 237.094 188.176 237.55 187.409C239.492 184.149 241.394 180.926 242.773 177.376C243.066 176.622 243.621 175.85 243.935 175.066C245.264 171.737 246.432 168.332 247.54 164.922C248.361 162.402 249.161 159.509 249.498 156.883C249.709 155.188 249.624 153.273 249.714 151.596C249.999 146.249 249.019 141.57 247.033 136.606C246.742 135.881 246.254 135.089 245.912 134.349C245.299 133.014 244.724 131.596 243.972 130.327C242.581 128.208 240.976 126.184 239.415 124.191C236.658 120.813 233.544 117.906 229.897 115.53C228.933 114.902 228.11 114.14 227.033 113.549C225.949 112.955 224.892 112.457 223.782 111.92C222.822 111.455 221.583 110.594 220.629 110.239C218.963 109.618 217.095 109.223 215.362 108.847C214.221 108.599 212.943 107.944 211.866 107.828C209.866 107.439 202.546 107.24 200.532 107.613C200.021 107.651 199.471 107.662 198.971 107.774C198.223 107.944 197.528 108.264 196.766 108.397C194.385 108.812 191.867 109.147 189.551 109.843C188.05 110.294 186.623 110.986 185.191 111.619C183.835 112.219 182.402 112.744 181.094 113.44C177.44 115.384 172.776 119.254 170.098 122.418C168.037 124.851 166.074 127.596 164.441 130.332C163.656 131.648 163.125 133.132 162.229 134.384C161.962 134.759 161.798 134.94 161.334 134.979C160.773 135.025 160.31 134.754 159.903 134.385C158.325 132.957 156.798 129.572 155.485 127.715C154.664 126.554 153.673 125.519 152.741 124.45C152.036 123.641 151.377 122.79 150.662 121.991C148.114 119.148 142.565 115.087 139.243 113.283C137.949 112.582 136.588 112.044 135.254 111.43C133.89 110.801 132.767 110.137 131.289 109.766C129.609 109.343 127.877 109.032 126.175 108.7C125.285 108.527 124.356 108.546 123.53 108.14C121.893 107.333 112.963 107.299 111.235 107.834C110.837 107.957 110.466 108.192 110.062 108.291C109.274 108.485 108.396 108.483 107.589 108.609C106.534 108.775 105.493 109.089 104.444 109.298C103.398 109.507 102.277 109.612 101.259 109.924C99.8276 110.361 98.456 111.099 97.0898 111.706C95.9787 112.2 94.8292 112.637 93.7484 113.194C89.4917 115.386 85.2365 118.832 82.1516 122.513C81.3562 123.463 80.6903 124.512 79.9825 125.527C78.8921 127.088 77.7431 128.777 76.9249 130.498C76.3623 131.682 76.0339 132.983 75.4874 134.175C75.1844 134.837 74.6941 135.399 74.4619 136.097C73.8061 138.063 73.5663 140.208 73.1954 142.243C72.9227 143.739 72.4769 145.373 72.4501 146.894C72.2558 148.085 72.1582 153.391 72.4198 154.556C72.5123 155.899 73.031 157.969 73.2652 159.387C73.6229 160.704 73.5683 162.511 74.0404 163.76C75.0371 166.392 75.9798 169.44 76.9801 172.045C77.9616 174.601 79.3419 177.144 80.5851 179.561C81.2039 180.765 81.6724 182.01 82.3788 183.169C84.3591 186.417 86.2818 189.492 88.4271 192.617C89.728 194.608 91.0921 196.769 92.5133 198.668C94.3687 201.149 96.426 203.558 98.2419 206.077C98.922 207.021 100.285 208.091 100.888 208.978C101.901 210.469 102.73 211.53 104.066 212.762C105.945 214.764 107.742 216.933 109.694 218.869C112.334 221.485 114.919 224.163 117.471 226.867C118.195 227.638 118.67 227.655 119.423 228.44C121.369 230.465 123.336 232.481 125.322 234.465C126.039 235.182 127.3 235.898 128.134 236.769C128.893 237.562 129.595 238.427 130.343 239.175C131.941 240.845 133.797 242.285 135.446 243.88C136.804 245.195 137.907 246.38 139.437 247.552C140.361 248.26 141.281 249.609 142.266 250.357C143.059 251.07 144.089 251.663 144.824 252.429C146.194 253.859 147.394 255.147 149.054 256.253C149.381 256.47 149.95 257.468 150.362 257.772C150.798 258.165 151.686 258.453 152.065 258.873C154.747 261.849 157.759 264.29 160.783 266.891Z" fill="#FF2600"/>
</svg>
