<svg width="785" height="282" viewBox="0 0 785 282" fill="none" xmlns="http://www.w3.org/2000/svg">
<path d="M14.7316 226V56.5034H81.6034C94.4039 56.5034 105.328 58.7931 114.377 63.3726C123.481 67.897 130.405 74.3248 135.15 82.6562C139.951 90.9324 142.351 100.671 142.351 111.871C142.351 123.127 139.923 132.81 135.068 140.921C130.212 148.976 123.177 155.156 113.963 159.459C104.804 163.763 93.7142 165.915 80.693 165.915H35.9187V137.114H74.8996C81.7413 137.114 87.4243 136.176 91.9486 134.3C96.4729 132.424 99.8386 129.61 102.046 125.858C104.308 122.106 105.439 117.444 105.439 111.871C105.439 106.243 104.308 101.498 102.046 97.6361C99.8386 93.7739 96.4453 90.8496 91.8658 88.8633C87.3415 86.8219 81.6309 85.8011 74.7341 85.8011H50.5676V226H14.7316ZM106.266 148.866L148.392 226H108.832L67.6166 148.866H106.266ZM167.676 226V56.5034H279.901V86.0494H203.512V126.437H272.453V155.983H203.512V226H167.676Z" fill="url(#paint0_radial_2637_28)"/>
<path d="M366.872 98.8775V122.051H293.793V98.8775H366.872ZM311.835 68.4211H341.795V187.764C341.795 191.792 342.402 194.881 343.616 197.033C344.885 199.13 346.54 200.564 348.582 201.337C350.623 202.109 352.885 202.496 355.368 202.496C357.244 202.496 358.955 202.358 360.5 202.082C362.1 201.806 363.313 201.558 364.141 201.337L369.19 224.759C367.589 225.31 365.3 225.917 362.32 226.579C359.396 227.241 355.81 227.628 351.561 227.738C344.057 227.959 337.299 226.828 331.285 224.345C325.27 221.807 320.498 217.889 316.967 212.593C313.491 207.296 311.78 200.675 311.835 192.73V68.4211ZM391.928 226V98.8775H421.888V226H391.928ZM406.991 80.8354C402.246 80.8354 398.163 79.2629 394.742 76.118C391.321 72.9178 389.611 69.0832 389.611 64.6141C389.611 60.0897 391.321 56.2551 394.742 53.1101C398.163 49.91 402.246 48.3099 406.991 48.3099C411.791 48.3099 415.874 49.91 419.24 53.1101C422.661 56.2551 424.371 60.0897 424.371 64.6141C424.371 69.0832 422.661 72.9178 419.24 76.118C415.874 79.2629 411.791 80.8354 406.991 80.8354ZM452.696 226V98.8775H481.332V120.478H482.822C485.47 113.195 489.857 107.512 495.981 103.429C502.105 99.2913 509.416 97.2223 517.913 97.2223C526.52 97.2223 533.776 99.3189 539.679 103.512C545.638 107.65 549.831 113.306 552.259 120.478H553.583C556.397 113.416 561.142 107.788 567.818 103.595C574.55 99.3465 582.522 97.2223 591.737 97.2223C603.434 97.2223 612.979 100.919 620.372 108.312C627.766 115.706 631.462 126.492 631.462 140.672V226H601.42V145.307C601.42 137.417 599.323 131.651 595.13 128.01C590.937 124.313 585.805 122.465 579.736 122.465C572.508 122.465 566.853 124.727 562.77 129.251C558.742 133.72 556.728 139.541 556.728 146.714V226H527.348V144.066C527.348 137.5 525.361 132.258 521.389 128.341C517.471 124.423 512.34 122.465 505.995 122.465C501.692 122.465 497.774 123.568 494.243 125.775C490.712 127.927 487.898 130.989 485.801 134.962C483.705 138.879 482.656 143.459 482.656 148.7V226H452.696ZM718.135 228.483C705.39 228.483 694.382 225.834 685.113 220.538C675.899 215.186 668.809 207.627 663.843 197.861C658.877 188.04 656.394 176.481 656.394 163.184C656.394 150.107 658.877 138.631 663.843 128.755C668.864 118.823 675.871 111.099 684.865 105.581C693.858 100.009 704.424 97.2223 716.562 97.2223C724.397 97.2223 731.791 98.4913 738.743 101.029C745.75 103.512 751.929 107.374 757.281 112.616C762.688 117.858 766.937 124.534 770.027 132.644C773.116 140.7 774.661 150.3 774.661 161.446V170.632H670.464V150.438H745.943C745.888 144.7 744.646 139.596 742.219 135.127C739.791 130.603 736.398 127.044 732.039 124.451C727.735 121.858 722.714 120.561 716.976 120.561C710.852 120.561 705.472 122.051 700.838 125.03C696.203 127.955 692.589 131.817 689.996 136.617C687.458 141.362 686.161 146.576 686.106 152.259V169.887C686.106 177.281 687.458 183.626 690.161 188.923C692.865 194.164 696.644 198.192 701.5 201.006C706.355 203.765 712.038 205.144 718.549 205.144C722.908 205.144 726.852 204.537 730.384 203.323C733.915 202.054 736.977 200.206 739.57 197.778C742.163 195.35 744.122 192.343 745.446 188.757L773.42 191.902C771.654 199.295 768.289 205.751 763.323 211.268C758.412 216.731 752.122 220.979 744.453 224.014C736.784 226.993 728.011 228.483 718.135 228.483Z" fill="#121827"/>
<defs>
<radialGradient id="paint0_radial_2637_28" cx="0" cy="0" r="1" gradientTransform="matrix(290 282 -290 691.035 0 0)" gradientUnits="userSpaceOnUse">
<stop stop-color="#FF0A94"/>
<stop offset="0.894231" stop-color="#029EFF"/>
</radialGradient>
</defs>
</svg>
